<svg width="40" height="35" viewBox="0 0 40 35" fill="none" xmlns="http://www.w3.org/2000/svg">
<path d="M23.4234 23.9044C23.4234 16.9145 25.4655 10.5015 29.5496 4.66529C32.1321 1.13642 34.2042 -0.390499 35.7658 0.0845411C37.2072 0.695307 37.9279 1.61146 37.9279 2.83299C37.9279 3.98666 37.4474 5.20819 36.4865 6.49758C35.5856 7.78698 34.8649 8.83885 34.3243 9.65321C33.7838 10.4676 33.3333 11.3498 32.973 12.2999C32.1321 14.2 31.7117 16.5074 31.7117 19.2219C33.1532 18.7468 34.5946 18.9504 36.036 19.8326C38.6787 21.5292 40 23.7008 40 26.3475C40 28.9263 39.2793 31.03 37.8378 32.6587C36.4565 34.2196 34.5345 35 32.0721 35C29.6096 35 27.5375 33.9481 25.8559 31.8444C24.2342 29.6728 23.4234 27.0261 23.4234 23.9044ZM0 23.9044C0 16.6431 2.01201 10.23 6.03604 4.66529C9.0991 0.52565 11.6517 -0.729814 13.6937 0.898896C14.1141 1.23821 14.3243 1.78111 14.3243 2.52761C14.3243 3.88486 13.8739 5.20819 12.973 6.49758C12.1321 7.78698 11.4414 8.83885 10.9009 9.65321C10.3604 10.4676 9.90991 11.3498 9.54955 12.2999C8.70871 14.2 8.28829 16.5074 8.28829 19.2219C9.72973 18.7468 11.1411 18.9504 12.5225 19.8326C15.1051 21.5292 16.3964 23.7008 16.3964 26.3475C16.3964 28.9263 15.7057 31.03 14.3243 32.6587C12.9429 34.2196 11.021 35 8.55856 35C6.0961 35 4.05405 33.9481 2.43243 31.8444C0.810811 29.6728 0 27.0261 0 23.9044Z" fill="#F77881"/>
</svg>
