<svg width="109" height="29" viewBox="0 0 109 29" fill="none" xmlns="http://www.w3.org/2000/svg">
<g opacity="0.75">
<path d="M33.152 8.37261C35.46 8.37261 37.297 9.12626 38.663 10.6336C40.0526 12.1173 40.7474 14.1663 40.7474 16.7805V28.2973H34.7417V17.5931C34.7417 16.2742 34.4002 15.2497 33.7172 14.5196C33.0342 13.7895 32.1157 13.4244 30.9617 13.4244C29.8076 13.4244 28.8891 13.7895 28.2061 14.5196C27.5231 15.2497 27.1816 16.2742 27.1816 17.5931V28.2973H21.1406V8.58457H27.1816V11.1988C27.794 10.3274 28.6183 9.6444 29.6545 9.14981C30.6908 8.63168 31.8566 8.37261 33.152 8.37261Z" fill="#DBE3E6"/>
<path d="M53.4592 22.6449L57.7338 8.58457H64.1634L57.1686 28.2973H49.7145L42.7196 8.58457H49.1846L53.4592 22.6449Z" fill="#DBE3E6"/>
<path d="M69.391 6.53558C68.3312 6.53558 67.4598 6.22941 66.7768 5.61707C66.1174 4.98117 65.7876 4.20397 65.7876 3.28546C65.7876 2.34339 66.1174 1.56618 66.7768 0.953842C67.4598 0.317947 68.3312 0 69.391 0C70.4273 0 71.2752 0.317947 71.9346 0.953842C72.6176 1.56618 72.9591 2.34339 72.9591 3.28546C72.9591 4.20397 72.6176 4.98117 71.9346 5.61707C71.2752 6.22941 70.4273 6.53558 69.391 6.53558ZM72.3939 8.58457V28.2973H66.3529V8.58457H72.3939Z" fill="#DBE3E6"/>
<path d="M87.4053 23.1748V28.2973H84.3318C82.1415 28.2973 80.434 27.7674 79.2093 26.7076C77.9846 25.6242 77.3723 23.8696 77.3723 21.4438V13.6011H74.97V8.58457H77.3723V3.78004H83.4133V8.58457H87.3699V13.6011H83.4133V21.5144C83.4133 22.1032 83.5546 22.5271 83.8372 22.7862C84.1198 23.0453 84.5909 23.1748 85.2503 23.1748H87.4053Z" fill="#DBE3E6"/>
<path d="M108.999 18.123C108.999 18.6882 108.964 19.277 108.893 19.8894H95.2215C95.3157 21.114 95.7043 22.0561 96.3873 22.7156C97.0938 23.3515 97.9535 23.6694 98.9662 23.6694C100.473 23.6694 101.522 23.0335 102.11 21.7617H108.54C108.21 23.0571 107.61 24.2229 106.738 25.2591C105.89 26.2954 104.819 27.1079 103.523 27.6967C102.228 28.2855 100.78 28.5799 99.1781 28.5799C97.2469 28.5799 95.5276 28.1678 94.0203 27.3435C92.513 26.5191 91.3354 25.3416 90.4876 23.8107C89.6397 22.2799 89.2158 20.4899 89.2158 18.4409C89.2158 16.3919 89.628 14.602 90.4523 13.0712C91.3001 11.5403 92.4777 10.3627 93.985 9.53841C95.4923 8.71411 97.2234 8.30195 99.1781 8.30195C101.086 8.30195 102.782 8.70233 104.265 9.50309C105.749 10.3038 106.903 11.4461 107.727 12.9299C108.575 14.4136 108.999 16.1447 108.999 18.123ZM102.817 16.5333C102.817 15.497 102.464 14.6727 101.757 14.0603C101.05 13.448 100.167 13.1418 99.1075 13.1418C98.0948 13.1418 97.2351 13.4362 96.5286 14.025C95.8456 14.6138 95.4217 15.4499 95.2568 16.5333H102.817Z" fill="#DBE3E6"/>
<rect y="3.5686" width="17.2221" height="5.74071" fill="#DBE3E6"/>
<rect y="22.5566" width="17.2221" height="5.74071" fill="#DBE3E6"/>
<rect y="12.8418" width="13.2478" height="5.74071" fill="#DBE3E6"/>
</g>
</svg>
