<svg width="122" height="34" viewBox="0 0 122 34" fill="none" xmlns="http://www.w3.org/2000/svg">
<circle cx="105" cy="17" r="16" stroke="#B6BEC3"/>
<path d="M111.998 21.9567V21.9562H112.001V16.8322C112.001 14.3255 111.46 12.3945 108.524 12.3945C107.112 12.3945 106.165 13.1676 105.778 13.9005H105.737V12.6286H102.953V21.9562H105.852V17.3375C105.852 16.1214 106.083 14.9455 107.592 14.9455C109.079 14.9455 109.101 16.3333 109.101 17.4155V21.9567H111.998Z" fill="#B6BEC3"/>
<path d="M98.2314 12.6294H101.134V21.957H98.2314V12.6294Z" fill="#B6BEC3"/>
<path d="M99.6812 7.9856C98.7531 7.9856 98 8.73714 98 9.66332C98 10.5895 98.7531 11.3568 99.6812 11.3568C100.609 11.3568 101.362 10.5895 101.362 9.66332C101.362 8.73714 100.609 7.9856 99.6812 7.9856V7.9856Z" fill="#B6BEC3"/>
<circle cx="61" cy="17" r="16" stroke="#B6BEC3"/>
<ellipse cx="57.7237" cy="19.5524" rx="0.547945" ry="0.546822" stroke="#FAFAFA"/>
<g opacity="0.75" clip-path="url(#clip0_1_551)">
<rect width="0.547945" height="0.519481" transform="translate(57.4492 19.3335)" fill="#FAFAFA"/>
<path d="M57.9749 19.3982C57.9531 19.4128 57.9289 19.424 57.9032 19.4314C57.8895 19.4163 57.8712 19.4057 57.8509 19.4009C57.8306 19.396 57.8092 19.3972 57.7896 19.4043C57.77 19.4114 57.7532 19.4241 57.7414 19.4405C57.7297 19.457 57.7235 19.4765 57.7238 19.4964V19.5181C57.6837 19.5191 57.6439 19.5106 57.6081 19.4935C57.5722 19.4764 57.5414 19.4511 57.5183 19.4199C57.5183 19.4199 57.427 19.6151 57.6325 19.7018C57.5855 19.7321 57.5294 19.7473 57.4727 19.7452C57.6781 19.8536 57.9293 19.7452 57.9293 19.4958C57.9293 19.4897 57.9286 19.4837 57.9275 19.4778C57.9508 19.4559 57.9672 19.4284 57.9749 19.3982Z" stroke="#BDBDBD" stroke-width="1.5" stroke-linecap="round" stroke-linejoin="round"/>
</g>
<g clip-path="url(#clip1_1_551)">
<path fill-rule="evenodd" clip-rule="evenodd" d="M67.6587 12.3941C67.8311 12.8363 67.9514 13.3467 67.9842 14.089C68.017 14.8342 68.0197 15.0716 68.0197 16.9685C68.0197 18.8653 68.0115 19.1028 67.9787 19.8479C67.9459 20.5902 67.8255 21.0979 67.6533 21.5428C67.2895 22.4817 66.5457 23.224 65.6048 23.587C65.1618 23.759 64.6504 23.879 63.9065 23.9118C63.1598 23.9446 62.9219 23.9527 61.0212 23.9527C59.1204 23.9527 58.8824 23.9446 58.1358 23.9118C57.3918 23.879 56.8832 23.759 56.4374 23.587C55.9725 23.4124 55.5486 23.1367 55.1985 22.7819C54.8429 22.4325 54.5668 22.0122 54.389 21.5428C54.2167 21.1006 54.0963 20.5902 54.0635 19.8479C54.0307 19.1028 54.0225 18.8653 54.0225 16.9685C54.0225 15.0716 54.0307 14.8342 54.0663 14.0863C54.0991 13.3439 54.2194 12.8363 54.3917 12.3914C54.5668 11.9275 54.8429 11.5044 55.1985 11.155C55.5486 10.7975 55.9697 10.5245 56.4402 10.3471C56.8832 10.1753 57.3946 10.0551 58.1385 10.0224C58.8851 9.98965 59.1231 9.98145 61.0238 9.98145C62.9246 9.98145 63.1625 9.98965 63.9119 10.0252C64.6558 10.0579 65.1645 10.1779 65.6102 10.3499C66.0752 10.5245 66.4991 10.8002 66.8492 11.155C67.2075 11.5044 67.481 11.9247 67.6587 12.3941Z" fill="#B6BEC3"/>
<path d="M61.0261 13.3799C59.0406 13.3799 57.4297 14.9874 57.4297 16.9689C57.4297 18.9504 59.0406 20.558 61.0261 20.558C63.0117 20.558 64.6225 18.9504 64.6225 16.9689C64.6225 14.9874 63.0117 13.3799 61.0261 13.3799ZM61.0261 19.297C59.738 19.297 58.6932 18.2545 58.6932 16.9689C58.6932 15.6834 59.738 14.6408 61.0261 14.6408C62.3143 14.6408 63.359 15.6834 63.359 16.9689C63.359 18.2545 62.3143 19.297 61.0261 19.297Z" fill="#474F5A"/>
<path d="M65.6051 13.2373C65.6051 13.7 65.2291 14.0752 64.7654 14.0752C64.3017 14.0752 63.9258 13.7 63.9258 13.2373C63.9258 12.7745 64.3017 12.3994 64.7654 12.3994C65.2291 12.3994 65.6051 12.7745 65.6051 13.2373Z" fill="#474F5A"/>
</g>
<circle cx="17" cy="17" r="16" stroke="#B6BEC3"/>
<path d="M21.1053 9.98145H18.8947C17.9176 9.98145 16.9805 10.3494 16.2896 11.0045C15.5987 11.6595 15.2105 12.5479 15.2105 13.4743V15.57H13V18.3642H15.2105V23.9528H18.1579V18.3642H20.3684L21.1053 15.57H18.1579V13.4743C18.1579 13.289 18.2355 13.1113 18.3737 12.9803C18.5119 12.8493 18.6993 12.7757 18.8947 12.7757H21.1053V9.98145Z" fill="#B6BEC3"/>
<defs>
<clipPath id="clip0_1_551">
<rect width="0.547945" height="0.519481" fill="white" transform="translate(57.4492 19.3335)"/>
</clipPath>
<clipPath id="clip1_1_551">
<rect width="14" height="13.9713" fill="white" transform="translate(54 9.98145)"/>
</clipPath>
</defs>
</svg>
